<?xml version="1.0" encoding="UTF-8"?>
<svg width="20px" height="20px" viewBox="0 0 20 20" version="1.1" xmlns="http://www.w3.org/2000/svg" xmlns:xlink="http://www.w3.org/1999/xlink">
    <!-- Generator: sketchtool 63.1 (101010) - https://sketch.com -->
    <title>365DEC67-25CF-4627-A327-F299C88D9EA6</title>
    <desc>Created with sketchtool.</desc>
    <defs>
        <rect id="path-1" x="0" y="0" width="300" height="60" rx="10"></rect>
        <filter x="-10.8%" y="-40.8%" width="121.7%" height="208.3%" filterUnits="objectBoundingBox" id="filter-2">
            <feMorphology radius="0.5" operator="erode" in="SourceAlpha" result="shadowSpreadOuter1"></feMorphology>
            <feOffset dx="0" dy="8" in="shadowSpreadOuter1" result="shadowOffsetOuter1"></feOffset>
            <feGaussianBlur stdDeviation="10" in="shadowOffsetOuter1" result="shadowBlurOuter1"></feGaussianBlur>
            <feColorMatrix values="0 0 0 0 0   0 0 0 0 0   0 0 0 0 0  0 0 0 0.15 0" type="matrix" in="shadowBlurOuter1"></feColorMatrix>
        </filter>
    </defs>
    <g id="Page-1" stroke="none" stroke-width="1" fill="none" fill-rule="evenodd">
        <g id="product-page" transform="translate(-1108.000000, -796.000000)">
            <rect fill="#FFFFFF" x="0" y="0" width="1920" height="3248"></rect>
            <g id="Group-15" transform="translate(1020.000000, 196.000000)">
                <g id="Group-6" transform="translate(0.000000, 580.000000)">
                    <g id="Rectangle">
                        <use fill="black" fill-opacity="1" filter="url(#filter-2)" xlink:href="#path-1"></use>
                        <use fill="#A042E1" fill-rule="evenodd" xlink:href="#path-1"></use>
                    </g>
                    <g id="Group-12" transform="translate(88.000000, 20.000000)">
                        <g id="icon_cart">
                            <polyline id="Stroke-464" stroke="#F5F8FA" stroke-linecap="round" stroke-linejoin="round" points="2 5 4 5 7.076 12.9947849 14 12.9947849 16 7.99804433 10 7.99804433"></polyline>
                            <path d="M9,15.9925031 C9,16.5439632 8.552,16.9915251 8,16.9915251 C7.448,16.9915251 7,16.5439632 7,15.9925031 C7,15.441043 7.448,14.9934811 8,14.9934811 C8.552,14.9934811 9,15.441043 9,15.9925031" id="Fill-465" fill="#F5F8FA"></path>
                            <path d="M14,15.9928292 C14,16.5444694 13.552,16.9921773 13,16.9921773 C12.448,16.9921773 12,16.5444694 12,15.9928292 C12,15.441189 12.448,14.9934811 13,14.9934811 C13.552,14.9934811 14,15.441189 14,15.9928292" id="Fill-466" fill="#F5F8FA"></path>
                        </g>
                    </g>
                </g>
            </g>
        </g>
    </g>
</svg>