<?xml version="1.0" encoding="UTF-8"?>
<svg width="20px" height="20px" viewBox="0 0 20 20" version="1.1" xmlns="http://www.w3.org/2000/svg" xmlns:xlink="http://www.w3.org/1999/xlink">
    <!-- Generator: sketchtool 63.1 (101010) - https://sketch.com -->
    <title>C4AA4877-C81E-4CA0-A460-3D4E9976D79E</title>
    <desc>Created with sketchtool.</desc>
    <g id="Page-1" stroke="none" stroke-width="1" fill="none" fill-rule="evenodd">
        <g id="cart-page" transform="translate(-497.000000, -418.000000)">
            <rect fill="#FFFFFF" x="0" y="0" width="1920" height="1080"></rect>
            <g id="Group-5" transform="translate(150.000000, 231.000000)" stroke="#E62744">
                <g id="Group-6-Copy-7" transform="translate(331.000000, 176.000000)">
                    <rect id="Rectangle" x="0" y="0" width="212" height="42" rx="10"></rect>
                    <g id="icon_search" transform="translate(16.000000, 11.000000)" stroke-linecap="round" stroke-linejoin="round">
                        <line x1="10" y1="9.99543677" x2="10" y2="13.9928292" id="Stroke-97"></line>
                        <line x1="7" y1="10.9947849" x2="7" y2="13.9928292" id="Stroke-98"></line>
                        <line x1="13" y1="10.9947849" x2="13" y2="13.9928292" id="Stroke-99"></line>
                        <path d="M16,5.99087353 L16,15.8908735 C16,16.4980735 15.552,16.9908735 15,16.9908735 L5,16.9908735 C4.448,16.9908735 4,16.4980735 4,15.8908735 L4,5.99087353" id="Stroke-100"></path>
                        <line x1="3" y1="5.99804433" x2="17" y2="5.99804433" id="Stroke-101"></line>
                        <path d="M7,5.99804433 L7,3.99934811 C7,3.44770795 7.448,3 8,3 L12,3 C12.552,3 13,3.44770795 13,3.99934811 L13,5.99804433" id="Stroke-102"></path>
                    </g>
                </g>
            </g>
        </g>
    </g>
</svg>