<?xml version="1.0" encoding="UTF-8"?>
<svg width="51px" height="20px" viewBox="0 0 51 20" version="1.1" xmlns="http://www.w3.org/2000/svg" xmlns:xlink="http://www.w3.org/1999/xlink">
    <!-- Generator: sketchtool 63.1 (101010) - https://sketch.com -->
    <title>357F18D1-3C6D-4BF8-A28E-76C05E9F3A1C</title>
    <desc>Created with sketchtool.</desc>
    <g id="Page-1" stroke="none" stroke-width="1" fill="none" fill-rule="evenodd">
        <g id="profile-page-cards-and-payement-empty" transform="translate(-645.000000, -293.000000)" fill-rule="nonzero">
            <g id="Group-6-Copy" transform="translate(570.000000, 242.000000)">
                <g id="Rectangle" transform="translate(0.000000, 36.000000)">
                    <g id="Google_Pay_Logo" transform="translate(74.500000, 15.000000)">
                        <path d="M24.25,9.8125 L24.25,15.625 L22.375,15.625 L22.375,1.25 L27.25,1.25 C28.4375,1.25 29.5625,1.6875 30.4375,2.5 C31.3125,3.25 31.75,4.375 31.75,5.5625 C31.75,6.75 31.3125,7.8125 30.4375,8.625 C29.5625,9.4375 28.5,9.875 27.25,9.875 L24.25,9.8125 L24.25,9.8125 Z M24.25,3 L24.25,8 L27.375,8 C28.0625,8 28.75,7.75 29.1875,7.25 C30.1875,6.3125 30.1875,4.75 29.25,3.8125 C29.25,3.8125 29.1875,3.75 29.1875,3.75 C28.6875,3.25 28.0625,2.9375 27.375,3 L24.25,3 L24.25,3 Z" id="Shape" fill="#5F6368"></path>
                        <path d="M36.0625,5.5 C37.4375,5.5 38.5,5.875 39.3125,6.625 C40.125,7.375 40.5,8.375 40.5,9.625 L40.5,15.625 L38.75,15.625 L38.75,14.25 L38.6875,14.25 C37.9375,15.375 36.875,15.9375 35.625,15.9375 C34.5625,15.9375 33.625,15.625 32.875,15 C32.1875,14.375 31.75,13.5 31.75,12.5625 C31.75,11.5625 32.125,10.75 32.875,10.125 C33.625,9.5 34.6875,9.25 35.9375,9.25 C37.0625,9.25 37.9375,9.4375 38.625,9.875 L38.625,9.4375 C38.625,8.8125 38.375,8.1875 37.875,7.8125 C37.375,7.375 36.75,7.125 36.0625,7.125 C35,7.125 34.1875,7.5625 33.625,8.4375 L32,7.4375 C33,6.125 34.3125,5.5 36.0625,5.5 Z M33.6875,12.625 C33.6875,13.125 33.9375,13.5625 34.3125,13.8125 C34.75,14.125 35.25,14.3125 35.75,14.3125 C36.5,14.3125 37.25,14 37.8125,13.4375 C38.4375,12.875 38.75,12.1875 38.75,11.4375 C38.1875,11 37.375,10.75 36.3125,10.75 C35.5625,10.75 34.9375,10.9375 34.4375,11.3125 C33.9375,11.625 33.6875,12.0625 33.6875,12.625 Z" id="Shape" fill="#5F6368"></path>
                        <polygon id="Path" fill="#5F6368" points="50.625 5.8125 44.4375 20 42.5625 20 44.875 15.0625 40.8125 5.875 42.8125 5.875 45.75 12.9375 45.8125 12.9375 48.6875 5.875 50.625 5.875"></polygon>
                        <path d="M16.8125,8.5625 C16.8125,8 16.75,7.4375 16.6875,6.875 L8.875,6.875 L8.875,10.0625 L13.3125,10.0625 C13.125,11.0625 12.5625,12 11.6875,12.5625 L11.6875,14.625 L14.375,14.625 C15.9375,13.1875 16.8125,11.0625 16.8125,8.5625 Z" id="Path" fill="#4285F4"></path>
                        <path d="M8.875,16.625 C11.125,16.625 13,15.875 14.375,14.625 L11.6875,12.5625 C10.9375,13.0625 10,13.375 8.875,13.375 C6.75,13.375 4.875,11.9375 4.25,9.9375 L1.5,9.9375 L1.5,12.0625 C2.9375,14.875 5.75,16.625 8.875,16.625 Z" id="Path" fill="#34A853"></path>
                        <path d="M4.25,9.9375 C3.875,8.9375 3.875,7.8125 4.25,6.75 L4.25,4.625 L1.5,4.625 C0.3125,6.9375 0.3125,9.6875 1.5,12.0625 L4.25,9.9375 Z" id="Path" fill="#FBBC04"></path>
                        <path d="M8.875,3.375 C10.0625,3.375 11.1875,3.8125 12.0625,4.625 L12.0625,4.625 L14.4375,2.25 C12.9375,0.875 10.9375,0.0625 8.9375,0.125 C5.8125,0.125 2.9375,1.875 1.5625,4.6875 L4.3125,6.8125 C4.875,4.8125 6.75,3.375 8.875,3.375 Z" id="Path" fill="#EA4335"></path>
                    </g>
                </g>
            </g>
        </g>
    </g>
</svg>