<?xml version="1.0" encoding="UTF-8"?>
<svg width="40px" height="40px" viewBox="0 0 40 40" version="1.1" xmlns="http://www.w3.org/2000/svg" xmlns:xlink="http://www.w3.org/1999/xlink">
    <!-- Generator: sketchtool 63.1 (101010) - https://sketch.com -->
    <title>9446E39B-A2E7-4E10-932F-E43ABB55D691</title>
    <desc>Created with sketchtool.</desc>
    <g id="Page-1" stroke="none" stroke-width="1" fill="none" fillRule="evenodd">
        <g id="homepage-full-scroll" transform="translate(-394.000000, -4223.000000)" fill="#F5F8FA">
            <g id="Group-33" transform="translate(0.000000, 4163.000000)">
                <path d="M413.885713,60 C424.868288,60 433.771425,68.9031368 433.771425,79.8857125 C433.771425,90.8682883 424.868288,99.7714251 413.885713,99.7714251 C402.903137,99.7714251 394,90.8682883 394,79.8857125 C394,68.9031368 402.903137,60 413.885713,60 Z M414.425678,70.3407613 L413.345778,70.3407613 C411.241449,70.342393 410.892939,70.3549994 409.950263,70.398011 C408.934294,70.4443499 408.240423,70.6057212 407.633282,70.8416971 C407.005604,71.0855918 406.473295,71.4119719 405.942614,71.9426144 C405.411972,72.4732947 405.085592,73.0056043 404.841697,73.6332818 C404.605721,74.2404232 404.44435,74.9342936 404.398011,75.9502627 C404.354999,76.8929394 404.342393,77.2414488 404.340761,79.3457776 L404.340761,80.4256775 C404.342393,82.5299763 404.354999,82.8784856 404.398011,83.8211624 C404.44435,84.8371315 404.605721,85.5310019 404.841697,86.1381432 C405.085592,86.7658207 405.411972,87.2981303 405.942614,87.8288107 C406.473295,88.3594531 407.005604,88.6858333 407.633282,88.9297659 C408.240423,89.1657038 408.934294,89.3270752 409.950263,89.3734141 C410.892939,89.4164257 411.241449,89.4290321 413.345778,89.4306637 L414.690387,89.4303871 C416.561405,89.4278784 416.919472,89.4145556 417.821162,89.3734141 C418.837131,89.3270752 419.531002,89.1657038 420.138143,88.9297659 C420.765821,88.6858333 421.29813,88.3594531 421.828811,87.8288107 C422.359453,87.2981303 422.685833,86.7658207 422.929766,86.1381432 C423.165704,85.5310019 423.327075,84.8371315 423.373414,83.8211624 C423.416426,82.8784856 423.429032,82.5299763 423.430664,80.4256775 L423.430387,79.0810642 C423.427878,77.2100204 423.414556,76.8519535 423.373414,75.9502627 C423.327075,74.9342936 423.165704,74.2404232 422.929766,73.6332818 C422.685833,73.0056043 422.359453,72.4732947 421.828811,71.9426144 C421.29813,71.4119719 420.765821,71.0855918 420.138143,70.8416971 C419.531002,70.6057212 418.837131,70.4443499 417.821162,70.398011 C416.878486,70.3549994 416.529976,70.342393 414.425678,70.3407613 Z M414.704387,72.0608701 C416.516108,72.0632395 416.855926,72.0756097 417.742769,72.1160725 C418.673411,72.1585088 419.178819,72.3140073 419.515164,72.4447261 C419.960707,72.6178811 420.278675,72.8247199 420.612671,73.1587537 C420.946705,73.4927497 421.153544,73.8107183 421.326699,74.256261 C421.457418,74.5926061 421.612916,75.0980141 421.655353,76.0286561 C421.693889,76.8732687 421.706944,77.2217132 421.710146,78.8180379 L421.710146,80.9534095 C421.706944,82.5497119 421.693889,82.8981564 421.655353,83.742769 C421.612916,84.6734109 421.457418,85.178819 421.326699,85.5151641 C421.153544,85.9607067 420.946705,86.2786754 420.612671,86.6126714 C420.278675,86.9467052 419.960707,87.153544 419.515164,87.326699 C419.178819,87.4574178 418.673411,87.6129163 417.742769,87.6553525 C416.898284,87.6938885 416.549886,87.7069438 414.953484,87.7101465 L412.817966,87.7101465 C411.221549,87.7069438 410.873173,87.6938885 410.028656,87.6553525 C409.098014,87.6129163 408.592606,87.4574178 408.256261,87.326699 C407.810718,87.153544 407.49275,86.9467052 407.158754,86.6126714 C406.824758,86.2786754 406.617881,85.9607067 406.444726,85.5151641 C406.314007,85.178819 406.158509,84.6734109 406.116073,83.742769 C406.073683,82.8136951 406.062125,82.4849846 406.060598,80.435339 L406.06087,79.0670638 C406.063239,77.2553172 406.07561,76.9154993 406.116073,76.0286561 C406.158509,75.0980141 406.314007,74.5926061 406.444726,74.256261 C406.617881,73.8107183 406.82472,73.4927497 407.158754,73.1587537 C407.49275,72.8247199 407.810718,72.6178811 408.256261,72.4447261 C408.592606,72.3140073 409.098014,72.1585088 410.028656,72.1160725 C410.95773,72.0736829 411.28644,72.0621251 413.336116,72.0605977 Z M413.885731,74.9841562 C411.17864,74.9841562 408.984156,77.1786403 408.984156,79.8857315 C408.984156,82.5927848 411.17864,84.7872689 413.885731,84.7872689 C416.592785,84.7872689 418.787269,82.5927848 418.787269,79.8857315 C418.787269,77.1786403 416.592785,74.9841562 413.885731,74.9841562 Z M413.885731,76.7039985 C415.642933,76.7039985 417.067427,78.1284922 417.067427,79.8857315 C417.067427,81.6429329 415.642933,83.0674265 413.885731,83.0674265 C412.128492,83.0674265 410.703999,81.6429329 410.703999,79.8857315 C410.703999,78.1284922 412.128492,76.7039985 413.885731,76.7039985 Z M418.980922,73.6450654 C418.348357,73.6450654 417.835522,74.1578998 417.835522,74.7905029 C417.835522,75.4231061 418.348357,75.9359026 418.980922,75.9359026 C419.613525,75.9359026 420.12636,75.4231061 420.12636,74.7905029 C420.12636,74.1578998 419.613525,73.6450654 418.980922,73.6450654 Z" id="instagram"></path>
            </g>
        </g>
    </g>
</svg>