<?xml version="1.0" encoding="UTF-8"?>
<svg width="80px" height="20px" viewBox="0 0 80 20" version="1.1" xmlns="http://www.w3.org/2000/svg" xmlns:xlink="http://www.w3.org/1999/xlink">
    <!-- Generator: sketchtool 63.1 (101010) - https://sketch.com -->
    <title>E9133BB5-36AA-464D-A281-9EE68FE8D9C5</title>
    <desc>Created with sketchtool.</desc>
    <g id="Page-1" stroke="none" stroke-width="1" fill="none" fill-rule="evenodd">
        <g id="profile-page-cards-and-payement-empty" transform="translate(-870.000000, -293.000000)" fill-rule="nonzero">
            <g id="Group-6-Copy" transform="translate(570.000000, 242.000000)">
                <g id="Rectangle" transform="translate(240.000000, 36.000000)">
                    <g id="PayPal" transform="translate(60.000000, 15.000000)">
                        <path d="M29.8135484,4.35419355 L25.4012903,4.35419355 C25.0993548,4.35419355 24.8425806,4.57354839 24.7954839,4.8716129 L23.0109677,16.1858065 C22.9754839,16.4090323 23.1483871,16.6103226 23.3748387,16.6103226 L25.4812903,16.6103226 C25.7832258,16.6103226 26.04,16.3909677 26.0870968,16.0922581 L26.5683871,13.0406452 C26.6148387,12.7419355 26.8722581,12.5225806 27.1735484,12.5225806 L28.5703226,12.5225806 C31.4767742,12.5225806 33.1541935,11.116129 33.5922581,8.32903226 C33.7896774,7.10967742 33.6006452,6.1516129 33.0296774,5.48064516 C32.4025806,4.74387097 31.2903226,4.35419355 29.8135484,4.35419355 Z M30.3225806,8.48645161 C30.0812903,10.0696774 28.8716129,10.0696774 27.7019355,10.0696774 L27.036129,10.0696774 L27.5032258,7.11290323 C27.5309677,6.93419355 27.6858065,6.80258065 27.8664516,6.80258065 L28.1716129,6.80258065 C28.9683871,6.80258065 29.72,6.80258065 30.1083871,7.25677419 C30.34,7.52774194 30.4109677,7.93032258 30.3225806,8.48645161 Z" id="Shape" fill="#253B80"></path>
                        <path d="M43.0025806,8.43548387 L40.8896774,8.43548387 C40.7096774,8.43548387 40.5541935,8.56709677 40.5264516,8.74580645 L40.4329032,9.33677419 L40.2851613,9.12258065 C39.8277419,8.45870968 38.8077419,8.23677419 37.7896774,8.23677419 C35.4548387,8.23677419 33.4606452,10.0051613 33.0722581,12.4858065 C32.8703226,13.7232258 33.1574194,14.9064516 33.8593548,15.7316129 C34.5032258,16.4903226 35.4245161,16.8064516 36.5206452,16.8064516 C38.4019355,16.8064516 39.4451613,15.5967742 39.4451613,15.5967742 L39.3509677,16.183871 C39.3154839,16.4083871 39.4883871,16.6096774 39.7135484,16.6096774 L41.6167742,16.6096774 C41.9193548,16.6096774 42.1748387,16.3903226 42.2225806,16.0916129 L43.3645161,8.86 C43.4006452,8.63741935 43.2283871,8.43548387 43.0025806,8.43548387 Z M40.0574194,12.5477419 C39.8535484,13.7548387 38.8954839,14.5651613 37.6735484,14.5651613 C37.06,14.5651613 36.5696774,14.3683871 36.2548387,13.9954839 C35.9425806,13.6251613 35.823871,13.0980645 35.9232258,12.5109677 C36.1135484,11.3141935 37.0877419,10.4774194 38.2909677,10.4774194 C38.8909677,10.4774194 39.3787097,10.6767742 39.7,11.0529032 C40.0219355,11.4329032 40.1496774,11.9632258 40.0574194,12.5477419 Z" id="Shape" fill="#253B80"></path>
                        <path d="M54.2554839,8.43548387 L52.1322581,8.43548387 C51.9296774,8.43548387 51.7393548,8.53612903 51.6245161,8.70451613 L48.696129,13.0180645 L47.4548387,8.87290323 C47.3767742,8.61354839 47.1374194,8.43548387 46.8664516,8.43548387 L44.78,8.43548387 C44.5264516,8.43548387 44.3503226,8.68322581 44.4309677,8.92193548 L46.7696774,15.7851613 L44.5709677,18.8890323 C44.3980645,19.1335484 44.5722581,19.4696774 44.8709677,19.4696774 L46.9916129,19.4696774 C47.1929032,19.4696774 47.3812903,19.3716129 47.4954839,19.2064516 L54.5574194,9.01290323 C54.7264516,8.76903226 54.5529032,8.43548387 54.2554839,8.43548387 Z" id="Path" fill="#253B80"></path>
                        <path d="M61.2851613,4.35419355 L56.8722581,4.35419355 C56.5709677,4.35419355 56.3141935,4.57354839 56.2670968,4.8716129 L54.4825806,16.1858065 C54.4470968,16.4090323 54.62,16.6103226 54.8451613,16.6103226 L57.1096774,16.6103226 C57.32,16.6103226 57.5,16.4567742 57.5329032,16.2477419 L58.0393548,13.0406452 C58.0858065,12.7419355 58.3432258,12.5225806 58.6445161,12.5225806 L60.0406452,12.5225806 C62.9477419,12.5225806 64.6245161,11.116129 65.0632258,8.32903226 C65.2612903,7.10967742 65.0709677,6.1516129 64.5,5.48064516 C63.8735484,4.74387097 62.7619355,4.35419355 61.2851613,4.35419355 Z M61.7941935,8.48645161 C61.5535484,10.0696774 60.343871,10.0696774 59.1735484,10.0696774 L58.5083871,10.0696774 L58.976129,7.11290323 C59.003871,6.93419355 59.1574194,6.80258065 59.3387097,6.80258065 L59.643871,6.80258065 C60.44,6.80258065 61.1922581,6.80258065 61.5806452,7.25677419 C61.8122581,7.52774194 61.8825806,7.93032258 61.7941935,8.48645161 Z" id="Shape" fill="#179BD7"></path>
                        <path d="M74.4735484,8.43548387 L72.3619355,8.43548387 C72.1806452,8.43548387 72.0264516,8.56709677 71.9993548,8.74580645 L71.9058065,9.33677419 L71.7574194,9.12258065 C71.3,8.45870968 70.2806452,8.23677419 69.2625806,8.23677419 C66.9277419,8.23677419 64.9341935,10.0051613 64.5458065,12.4858065 C64.3445161,13.7232258 64.6303226,14.9064516 65.3322581,15.7316129 C65.9774194,16.4903226 66.8974194,16.8064516 67.9935484,16.8064516 C69.8748387,16.8064516 70.9180645,15.5967742 70.9180645,15.5967742 L70.823871,16.183871 C70.7883871,16.4083871 70.9612903,16.6096774 71.1877419,16.6096774 L73.0903226,16.6096774 C73.3916129,16.6096774 73.6483871,16.3903226 73.6954839,16.0916129 L74.8380645,8.86 C74.8729032,8.63741935 74.7,8.43548387 74.4735484,8.43548387 Z M71.5283871,12.5477419 C71.3258065,13.7548387 70.3664516,14.5651613 69.1445161,14.5651613 C68.5322581,14.5651613 68.0406452,14.3683871 67.7258065,13.9954839 C67.4135484,13.6251613 67.296129,13.0980645 67.3941935,12.5109677 C67.5858065,11.3141935 68.5587097,10.4774194 69.7619355,10.4774194 C70.3619355,10.4774194 70.8496774,10.6767742 71.1709677,11.0529032 C71.4941935,11.4329032 71.6219355,11.9632258 71.5283871,12.5477419 Z" id="Shape" fill="#179BD7"></path>
                        <path d="M76.9645161,4.66451613 L75.1535484,16.1858065 C75.1180645,16.4090323 75.2909677,16.6103226 75.516129,16.6103226 L77.3367742,16.6103226 C77.6393548,16.6103226 77.896129,16.3909677 77.9425806,16.0922581 L79.7283871,4.77870968 C79.763871,4.55548387 79.5909677,4.35354839 79.3658065,4.35354839 L77.3270968,4.35354839 C77.1470968,4.35419355 76.9922581,4.48580645 76.9645161,4.66451613 Z" id="Path" fill="#179BD7"></path>
                        <path d="M4.68774194,18.8090323 L5.02516129,16.6658065 L4.27354839,16.6483871 L0.684516129,16.6483871 L3.17870968,0.833548387 C3.18645161,0.785806452 3.2116129,0.741290323 3.2483871,0.709677419 C3.28516129,0.678064516 3.33225806,0.660645161 3.38129032,0.660645161 L9.43290323,0.660645161 C11.4419355,0.660645161 12.8283871,1.07870968 13.5522581,1.90387097 C13.8916129,2.29096774 14.1077419,2.69548387 14.2122581,3.14064516 C14.3219355,3.60774194 14.323871,4.16580645 14.2167742,4.84645161 L14.2090323,4.89612903 L14.2090323,5.33225806 L14.5483871,5.52451613 C14.8341935,5.67612903 15.0612903,5.84967742 15.2354839,6.0483871 C15.5258065,6.37935484 15.7135484,6.8 15.7929032,7.29870968 C15.8748387,7.8116129 15.8477419,8.42193548 15.7135484,9.11290323 C15.5587097,9.90774194 15.3083871,10.6 14.9703226,11.1664516 C14.6593548,11.6883871 14.2632258,12.1212903 13.7929032,12.4567742 C13.343871,12.7754839 12.8103226,13.0174194 12.2070968,13.1722581 C11.6225806,13.3245161 10.956129,13.4012903 10.2251613,13.4012903 L9.75419355,13.4012903 C9.41741935,13.4012903 9.09032258,13.5225806 8.83354839,13.74 C8.57612903,13.9619355 8.40580645,14.2651613 8.35354839,14.5967742 L8.31806452,14.7896774 L7.72193548,18.5670968 L7.69483871,18.7058065 C7.68774194,18.7496774 7.67548387,18.7716129 7.65741935,18.7864516 C7.64129032,18.8 7.61806452,18.8090323 7.59548387,18.8090323 L4.68774194,18.8090323 Z" id="Path" fill="#253B80"></path>
                        <path d="M14.8696774,4.94645161 L14.8696774,4.94645161 L14.8696774,4.94645161 C14.8516129,5.06193548 14.8309677,5.18 14.8077419,5.30129032 C14.0096774,9.39870968 11.2793548,10.8141935 7.79225806,10.8141935 L6.01677419,10.8141935 C5.59032258,10.8141935 5.23096774,11.123871 5.16451613,11.5445161 L5.16451613,11.5445161 L5.16451613,11.5445161 L4.25548387,17.3096774 L3.99806452,18.943871 C3.95483871,19.22 4.16774194,19.4690323 4.44645161,19.4690323 L7.59548387,19.4690323 C7.9683871,19.4690323 8.28516129,19.1980645 8.34387097,18.8303226 L8.37483871,18.6703226 L8.96774194,14.9077419 L9.00580645,14.7012903 C9.06387097,14.3322581 9.38129032,14.0612903 9.75419355,14.0612903 L10.2251613,14.0612903 C13.276129,14.0612903 15.6645161,12.8225806 16.3625806,9.23806452 C16.6541935,7.74064516 16.5032258,6.49032258 15.7316129,5.61096774 C15.4980645,5.34580645 15.2083871,5.12580645 14.8696774,4.94645161 Z" id="Path" fill="#179BD7"></path>
                        <path d="M14.0348387,4.61354839 C13.9129032,4.57806452 13.7870968,4.54580645 13.6580645,4.51677419 C13.5283871,4.4883871 13.3954839,4.46322581 13.2587097,4.44129032 C12.78,4.36387097 12.2554839,4.32709677 11.6935484,4.32709677 L6.95032258,4.32709677 C6.83354839,4.32709677 6.72258065,4.35354839 6.62322581,4.40129032 C6.40451613,4.50645161 6.24193548,4.71354839 6.20258065,4.96709677 L5.19354839,11.3580645 L5.16451613,11.5445161 C5.23096774,11.123871 5.59032258,10.8141935 6.01677419,10.8141935 L7.79225806,10.8141935 C11.2793548,10.8141935 14.0096774,9.39806452 14.8077419,5.30129032 C14.8316129,5.18 14.8516129,5.06193548 14.8696774,4.94645161 C14.6677419,4.83935484 14.4490323,4.74774194 14.2135484,4.66967742 C14.1554839,4.65032258 14.0954839,4.6316129 14.0348387,4.61354839 Z" id="Path" fill="#222D65"></path>
                        <path d="M6.20258065,4.96709677 C6.24193548,4.71354839 6.40451613,4.50645161 6.62322581,4.40193548 C6.72322581,4.35419355 6.83354839,4.32774194 6.95032258,4.32774194 L11.6935484,4.32774194 C12.2554839,4.32774194 12.78,4.36451613 13.2587097,4.44193548 C13.3954839,4.46387097 13.5283871,4.48903226 13.6580645,4.51741935 C13.7870968,4.54645161 13.9129032,4.57870968 14.0348387,4.61419355 C14.0954839,4.63225806 14.1554839,4.65096774 14.2141935,4.66967742 C14.4496774,4.74774194 14.6683871,4.84 14.8703226,4.94645161 C15.1077419,3.43225806 14.8683871,2.40129032 14.0496774,1.46774194 C13.1470968,0.44 11.5180645,0 9.43354839,0 L3.38193548,0 C2.95612903,0 2.59290323,0.309677419 2.52709677,0.730967742 L0.0064516129,16.7083871 C-0.0432258065,17.0245161 0.200645161,17.3096774 0.519354839,17.3096774 L4.25548387,17.3096774 L5.19354839,11.3580645 L6.20258065,4.96709677 Z" id="Path" fill="#253B80"></path>
                    </g>
                </g>
            </g>
        </g>
    </g>
</svg>