<?xml version="1.0" encoding="UTF-8"?>
<svg width="40px" height="40px" viewBox="0 0 40 40" version="1.1" xmlns="http://www.w3.org/2000/svg" xmlns:xlink="http://www.w3.org/1999/xlink">
    <!-- Generator: sketchtool 63.1 (101010) - https://sketch.com -->
    <title>C6C9C15F-5429-4FF4-872D-72AB45518136</title>
    <desc>Created with sketchtool.</desc>
    <g id="Page-1" stroke="none" stroke-width="1" fill="none" fillRule="evenodd">
        <g id="homepage-full-scroll" transform="translate(-586.000000, -4223.000000)" fill="#F5F8FA">
            <g id="Group-33" transform="translate(0.000000, 4163.000000)">
                <path d="M606,60 C617.045695,60 626,68.954305 626,80 C626,91.045695 617.045695,100 606,100 C594.954305,100 586,91.045695 586,80 C586,68.954305 594.954305,60 606,60 Z M606.461063,72.0362021 C600.759563,72.0362021 597.884625,76.1235904 597.884625,79.5323409 C597.884625,81.5962845 598.665469,83.432328 600.342094,84.1167781 C600.58626,84.2165253 600.807983,84.1417589 600.910339,83.9104535 L600.942937,83.8164113 L601.212198,82.7490017 C601.250671,82.555719 601.220979,82.4477121 601.089383,82.2763136 L600.897948,82.038366 C600.482891,81.4887093 600.223875,80.789369 600.223875,79.8310202 C600.223875,76.7988532 602.491594,74.0843024 606.131719,74.0843024 C609.353625,74.0843024 611.125031,76.0528111 611.125031,78.6828016 C611.125031,82.1426445 609.593719,85.0627834 607.320094,85.0627834 C606.064313,85.0627834 605.125406,84.0245306 605.426063,82.7516279 C605.785969,81.2315132 606.485812,79.5902768 606.485812,78.4930568 C606.485812,77.5113337 605.958469,76.6915123 604.866937,76.6915123 C603.583313,76.6915123 602.552625,78.0196323 602.552625,79.7979274 C602.552625,80.5245853 602.710483,81.1004538 602.823601,81.4198266 L602.855992,81.5078378 L602.935969,81.6965005 L601.391906,88.2351967 C601.177031,89.1468905 601.149281,90.1528005 601.183031,90.9907151 L602.5995,91.5079197 C603.054844,90.7871894 603.552844,89.8624647 603.807281,88.9372712 L603.921053,88.5075447 L604.6515,85.6385802 C605.068969,86.4340272 606.287625,87.1343205 607.583156,87.1343205 C611.440969,87.1343205 614.058094,83.617573 614.058094,78.9102329 C614.058094,75.3514865 611.042625,72.0362021 606.461063,72.0362021 Z" id="pinterest"></path>
            </g>
        </g>
    </g>
</svg>