<?xml version="1.0" encoding="UTF-8"?>
<svg width="48px" height="20px" viewBox="0 0 48 20" version="1.1" xmlns="http://www.w3.org/2000/svg" xmlns:xlink="http://www.w3.org/1999/xlink">
    <!-- Generator: sketchtool 63.1 (101010) - https://sketch.com -->
    <title>6B09935C-A691-4C23-900E-591DE2857079</title>
    <desc>Created with sketchtool.</desc>
    <g id="Page-1" stroke="none" stroke-width="1" fill="none" fill-rule="evenodd">
        <g id="profile-page-cards-and-payement-empty" transform="translate(-1126.000000, -293.000000)" fill="#635BFF">
            <g id="Group-6-Copy" transform="translate(570.000000, 242.000000)">
                <g id="Rectangle" transform="translate(480.000000, 36.000000)">
                    <g id="Stripe_Logo,_revised_2016" transform="translate(76.000000, 15.000000)">
                        <path d="M48,10.32 C48,6.90666667 46.3466667,4.21333333 43.1866667,4.21333333 C40.0133333,4.21333333 38.0933333,6.90666667 38.0933333,10.2933333 C38.0933333,14.3066667 40.36,16.3333333 43.6133333,16.3333333 C45.2,16.3333333 46.4,15.9733333 47.3066667,15.4666667 L47.3066667,12.8 C46.4,13.2533333 45.36,13.5333333 44.04,13.5333333 C42.7466667,13.5333333 41.6,13.08 41.4533333,11.5066667 L47.9733333,11.5066667 C47.9733333,11.3333333 48,10.64 48,10.32 Z M41.4133333,9.05333333 C41.4133333,7.54666667 42.3333333,6.92 43.1733333,6.92 C43.9866667,6.92 44.8533333,7.54666667 44.8533333,9.05333333 L41.4133333,9.05333333 Z" id="Shape"></path>
                        <path d="M32.9466667,4.21333333 C31.64,4.21333333 30.8,4.82666667 30.3333333,5.25333333 L30.16,4.42666667 L27.2266667,4.42666667 L27.2266667,19.9733333 L30.56,19.2666667 L30.5733333,15.4933333 C31.0533333,15.84 31.76,16.3333333 32.9333333,16.3333333 C35.32,16.3333333 37.4933333,14.4133333 37.4933333,10.1866667 C37.48,6.32 35.28,4.21333333 32.9466667,4.21333333 Z M32.1466667,13.4 C31.36,13.4 30.8933333,13.12 30.5733333,12.7733333 L30.56,7.82666667 C30.9066667,7.44 31.3866667,7.17333333 32.1466667,7.17333333 C33.36,7.17333333 34.2,8.53333333 34.2,10.28 C34.2,12.0666667 33.3733333,13.4 32.1466667,13.4 Z" id="Shape"></path>
                        <polygon id="Path" points="22.64 3.42666667 25.9866667 2.70666667 25.9866667 0 22.64 0.706666667"></polygon>
                        <rect id="Rectangle" x="22.64" y="4.44" width="3.34666667" height="11.6666667"></rect>
                        <path d="M19.0533333,5.42666667 L18.84,4.44 L15.96,4.44 L15.96,16.1066667 L19.2933333,16.1066667 L19.2933333,8.2 C20.08,7.17333333 21.4133333,7.36 21.8266667,7.50666667 L21.8266667,4.44 C21.4,4.28 19.84,3.98666667 19.0533333,5.42666667 Z" id="Path"></path>
                        <path d="M12.3866667,1.54666667 L9.13333333,2.24 L9.12,12.92 C9.12,14.8933333 10.6,16.3466667 12.5733333,16.3466667 C13.6666667,16.3466667 14.4666667,16.1466667 14.9066667,15.9066667 L14.9066667,13.2 C14.48,13.3733333 12.3733333,13.9866667 12.3733333,12.0133333 L12.3733333,7.28 L14.9066667,7.28 L14.9066667,4.44 L12.3733333,4.44 L12.3866667,1.54666667 Z" id="Path"></path>
                        <path d="M3.37333333,7.82666667 C3.37333333,7.30666667 3.8,7.10666667 4.50666667,7.10666667 C5.52,7.10666667 6.8,7.41333333 7.81333333,7.96 L7.81333333,4.82666667 C6.70666667,4.38666667 5.61333333,4.21333333 4.50666667,4.21333333 C1.8,4.21333333 0,5.62666667 0,7.98666667 C0,11.6666667 5.06666667,11.08 5.06666667,12.6666667 C5.06666667,13.28 4.53333333,13.48 3.78666667,13.48 C2.68,13.48 1.26666667,13.0266667 0.146666667,12.4133333 L0.146666667,15.5866667 C1.38666667,16.12 2.64,16.3466667 3.78666667,16.3466667 C6.56,16.3466667 8.46666667,14.9733333 8.46666667,12.5866667 C8.45333333,8.61333333 3.37333333,9.32 3.37333333,7.82666667 Z" id="Path"></path>
                    </g>
                </g>
            </g>
        </g>
    </g>
</svg>