<?xml version="1.0" encoding="UTF-8"?>
<svg width="40px" height="40px" viewBox="0 0 40 40" version="1.1" xmlns="http://www.w3.org/2000/svg" xmlns:xlink="http://www.w3.org/1999/xlink">
    <!-- Generator: sketchtool 63.1 (101010) - https://sketch.com -->
    <title>C1B74E65-E24F-40C3-93E6-A3BCB07B82FC</title>
    <desc>Created with sketchtool.</desc>
    <g id="Page-1" stroke="none" stroke-width="1" fill="none" fillRule="evenodd">
        <g id="homepage-full-scroll" transform="translate(-522.000000, -4223.000000)" fill="#F5F8FA">
            <g id="Group-33" transform="translate(0.000000, 4163.000000)">
                <path d="M542,60 C553.045695,60 562,68.954305 562,80 C562,91.045695 553.045695,100 542,100 C530.954305,100 522,91.045695 522,80 C522,68.954305 530.954305,60 542,60 Z M545.534485,71.0632194 L542.517243,71.0632194 L542.518246,78.3051282 C542.517919,78.304956 542.517591,78.3047838 542.517263,78.3046117 L542.517243,83.1936627 L542.513116,83.1932194 L542.517243,83.2942374 C542.517243,84.7384304 541.346493,85.9091802 539.9023,85.9091802 C538.458107,85.9091802 537.287358,84.7384304 537.287358,83.2942374 C537.287358,81.8500444 538.458107,80.6792947 539.9023,80.6792947 C540.14641,80.6792947 540.382707,80.7127437 540.606858,80.7753084 L540.606858,80.7753084 L540.606776,77.705684 C540.375997,77.6768874 540.140881,77.662053 539.9023,77.662053 C536.791731,77.662053 534.270116,80.1836679 534.270116,83.2942374 C534.270116,86.404807 536.791731,88.9264218 539.9023,88.9264218 C543.01287,88.9264218 545.534485,86.404807 545.534485,83.2942374 L545.534485,83.2942374 L545.534485,77.4317369 L545.80032,77.5821971 C546.875044,78.1524567 548.201275,78.4477093 549.760608,78.4477093 L549.760608,78.4477093 L549.760608,75.4304677 L549.522649,75.4276628 C546.712593,75.3602165 545.534485,74.0718035 545.534485,71.0632194 L545.534485,71.0632194 Z" id="tik_tok"></path>
            </g>
        </g>
    </g>
</svg>