<?xml version="1.0" encoding="UTF-8"?>
<svg width="40px" height="40px" viewBox="0 0 40 40" version="1.1" xmlns="http://www.w3.org/2000/svg" xmlns:xlink="http://www.w3.org/1999/xlink">
    <!-- Generator: sketchtool 63.1 (101010) - https://sketch.com -->
    <title>AB3A66A0-5EF6-47B7-BB7A-725C03DF9C20</title>
    <desc>Created with sketchtool.</desc>
    <g id="Page-1" stroke="none" stroke-width="1" fill="none" fillRule="evenodd">
        <g id="homepage-full-scroll" transform="translate(-458.000000, -4223.000000)" fill="#F5F8FA">
            <g id="Group-33" transform="translate(0.000000, 4163.000000)">
                <path d="M477.885713,60 C488.868288,60 497.771425,68.9031368 497.771425,79.8857125 C497.771425,90.8682883 488.868288,99.7714251 477.885713,99.7714251 C466.903137,99.7714251 458,90.8682883 458,79.8857125 C458,68.9031368 466.903137,60 477.885713,60 Z M481.557093,71.9314275 C479.395612,71.9314275 477.642,73.7296877 477.642,75.9473504 C477.642,76.2621896 477.675615,76.5678363 477.742846,76.8619926 C474.487738,76.6942316 471.602402,75.0970548 469.669506,72.6645202 C469.33223,73.259727 469.139501,73.9503049 469.139501,74.6856957 C469.139501,76.0783419 469.830861,77.3078233 470.881908,78.0282764 C470.240971,78.0087426 469.635891,77.8260439 469.107006,77.5272914 L469.107006,77.5767005 C469.107006,79.5231879 470.457231,81.1467927 472.250062,81.5144881 C471.92175,81.6087101 471.575509,81.655821 471.218064,81.655821 C470.965947,81.655821 470.719433,81.631691 470.480762,81.58458 C470.979393,83.1794587 472.424863,84.3411463 474.139257,84.3721706 C472.799116,85.4499776 471.109373,86.0922955 469.275083,86.0922955 C468.959097,86.0922955 468.646472,86.0739107 468.340571,86.0371412 C470.074014,87.1746987 472.133528,87.8399975 474.344312,87.8399975 C481.54925,87.8399975 485.487874,81.7213168 485.487874,76.4138639 C485.487874,76.2392086 485.484513,76.0645533 485.47779,75.8933451 C486.243104,75.3268645 486.907572,74.6201999 487.430855,73.8147172 C486.72941,74.1341526 485.97418,74.3501736 485.181973,74.4466937 C485.990987,73.9503049 486.611755,73.163207 486.904211,72.2255838 C486.14674,72.685203 485.309712,73.019576 484.415538,73.1988275 C483.702887,72.4186239 482.684336,71.9314275 481.557093,71.9314275 Z" id="twitter"></path>
            </g>
        </g>
    </g>
</svg>