<?xml version="1.0" encoding="UTF-8"?>
<svg width="40px" height="40px" viewBox="0 0 40 40" version="1.1" xmlns="http://www.w3.org/2000/svg" xmlns:xlink="http://www.w3.org/1999/xlink">
    <!-- Generator: sketchtool 63.1 (101010) - https://sketch.com -->
    <title>25A159ED-00FE-42F3-A345-0C997D75AB8E</title>
    <desc>Created with sketchtool.</desc>
    <g id="Page-1" stroke="none" stroke-width="1" fill="none" fillRule="evenodd">
        <g id="homepage-full-scroll" transform="translate(-650.000000, -4223.000000)" fill="#F5F8FA">
            <g id="Group-33" transform="translate(0.000000, 4163.000000)">
                <path d="M670,60 C681.045695,60 690,68.954305 690,80 C690,91.045695 681.045695,100 670,100 C658.954305,100 650,91.045695 650,80 C650,68.954305 658.954305,60 670,60 Z M679.21388,73 L663.1739,73 L662,76.1305 L662,88.6510001 L666.3023,88.6510001 L666.3023,91 L668.65118,91 L670.99772,88.6510001 L674.51852,88.6510001 L679.21388,83.95732 L679.21388,73 Z M677.64926,74.56426 L677.64926,83.17312 L674.9099,85.91266 L670.60694,85.91266 L668.26106,88.25842 L668.26106,85.91266 L664.73786,85.91266 L664.73786,74.56426 L677.64926,74.56426 Z M670.606928,77.696422 L669.041888,77.696422 L669.041888,82.391542 L670.606928,82.391542 L670.606928,77.696422 Z M674.909888,77.696422 L673.345148,77.696422 L673.345148,82.391542 L674.909888,82.391542 L674.909888,77.696422 Z" id="twitch"></path>
            </g>
        </g>
    </g>
</svg>